<svg xmlns="http://www.w3.org/2000/svg" width="256" height="256" viewBox="0 0 256 256">
  <defs>
    <linearGradient id="bg3" x1="0" y1="0" x2="1" y2="1">
      <stop offset="0%" stop-color="#0f172a"/>
      <stop offset="100%" stop-color="#1e293b"/>
    </linearGradient>
    <pattern id="dots" x="0" y="0" width="20" height="20" patternUnits="userSpaceOnUse">
      <circle cx="4" cy="4" r="1.3" fill="#cbd5e1" opacity="0.12"/>
    </pattern>
    <radialGradient id="vignette" cx="50%" cy="45%" r="70%">
      <stop offset="72%" stop-color="#000000" stop-opacity="0"/>
      <stop offset="100%" stop-color="#020617" stop-opacity="0.22"/>
    </radialGradient>
  </defs>
  <rect x="8" y="8" width="240" height="240" rx="52" fill="url(#bg3)"/>
  <rect x="8" y="8" width="240" height="240" rx="52" fill="url(#dots)"/>
  <rect x="8" y="8" width="240" height="240" rx="52" fill="url(#vignette)"/>
  <rect x="38" y="44" width="180" height="120" rx="16" fill="#334155" stroke="#cbd5e1" stroke-width="3"/>
  <g fill="#e2e8f0">
    <circle cx="64" cy="72" r="8"/>
    <circle cx="98" cy="98" r="10"/>
    <circle cx="132" cy="82" r="8"/>
    <circle cx="166" cy="116" r="10"/>
    <circle cx="192" cy="88" r="9"/>
  </g>
  <line x1="72" y1="136" x2="124" y2="66" stroke="#f87171" stroke-width="5" stroke-linecap="round"/>
  <line x1="146" y1="70" x2="202" y2="132" stroke="#f87171" stroke-width="5" stroke-linecap="round"/>
  <line x1="52" y1="188" x2="212" y2="188" stroke="#e2e8f0" stroke-width="4"/>
  <line x1="52" y1="188" x2="52" y2="216" stroke="#e2e8f0" stroke-width="4"/>
  <polyline points="56,206 76,202 96,208 116,196 136,204 156,194 176,202 196,190 212,196" fill="none" stroke="#fb7185" stroke-width="6" stroke-linecap="round" stroke-linejoin="round"/>
</svg>
